<?xml version="1.0" encoding="utf-8"?>
<!-- Generator: Adobe Illustrator 26.0.3, SVG Export Plug-In . SVG Version: 6.00 Build 0)  -->
<svg version="1.1" id="Ebene_1" xmlns="http://www.w3.org/2000/svg" xmlns:xlink="http://www.w3.org/1999/xlink" x="0px" y="0px"
	 viewBox="0 0 55 55" style="enable-background:new 0 0 55 55;" xml:space="preserve">
<style type="text/css">
	.st0{clip-path:url(#SVGID_00000078731783942668274980000011863341887853898644_);fill:#FFFFFF;}
	.st1{clip-path:url(#SVGID_00000078731783942668274980000011863341887853898644_);fill:#1D1D1B;}
</style>
<g>
	<defs>
		<rect id="SVGID_1_" width="55" height="55"/>
	</defs>
	<clipPath id="SVGID_00000080193151031165390350000011142336342025763462_">
		<use xlink:href="#SVGID_1_"  style="overflow:visible;"/>
	</clipPath>
	<path style="clip-path:url(#SVGID_00000080193151031165390350000011142336342025763462_);fill:#FFFFFF;" d="M27.5,55
		C42.7,55,55,42.7,55,27.5S42.7,0,27.5,0S0,12.3,0,27.5S12.3,55,27.5,55"/>
	<path style="clip-path:url(#SVGID_00000080193151031165390350000011142336342025763462_);fill:#1D1D1B;" d="M34.9,19.6
		c2.7,0,4.8-2.1,4.8-4.8S37.5,10,34.9,10H20.1c-2.7,0-4.8,2.1-4.8,4.8s2.1,4.8,4.8,4.8H34.9z"/>
	<path style="clip-path:url(#SVGID_00000080193151031165390350000011142336342025763462_);fill:#1D1D1B;" d="M34.9,33.3
		c2.7,0,4.8-2.1,4.8-4.8s-2.1-4.8-4.8-4.8H20.1c-2.7,0-4.8,2.1-4.8,4.8s2.1,4.8,4.8,4.8H34.9z"/>
	<path style="clip-path:url(#SVGID_00000080193151031165390350000011142336342025763462_);fill:#1D1D1B;" d="M34.9,47
		c2.7,0,4.8-2.1,4.8-4.8s-2.1-4.8-4.8-4.8H20.1c-2.7,0-4.8,2.1-4.8,4.8s2.1,4.8,4.8,4.8H34.9z"/>
</g>
</svg>
