<?xml version="1.0" encoding="UTF-8" standalone="no"?>
<svg
   xmlns:dc="http://purl.org/dc/elements/1.1/"
   xmlns:cc="http://creativecommons.org/ns#"
   xmlns:rdf="http://www.w3.org/1999/02/22-rdf-syntax-ns#"
   xmlns:svg="http://www.w3.org/2000/svg"
   xmlns="http://www.w3.org/2000/svg"
   xmlns:sodipodi="http://sodipodi.sourceforge.net/DTD/sodipodi-0.dtd"
   xmlns:inkscape="http://www.inkscape.org/namespaces/inkscape"
   width="486.05585"
   height="688.30127"
   version="1.1"
   id="svg50"
   sodipodi:docname="gasoline_can.svg"
   inkscape:version="0.92.3 (unknown)"
   inkscape:export-filename="/media/juhele/data_2TB/_GRAFIKA/Pyrotechnik/gasoline_can.png"
   inkscape:export-xdpi="158.00653"
   inkscape:export-ydpi="158.00653">
  <title
     id="title1138">Gasoline / petrol / fuel can</title>
  <metadata
     id="metadata56">
    <rdf:RDF>
      <cc:Work
         rdf:about="">
        <dc:format>image/svg+xml</dc:format>
        <dc:type
           rdf:resource="http://purl.org/dc/dcmitype/StillImage" />
        <dc:title>Gasoline / petrol / fuel can</dc:title>
        <dc:contributor>
          <cc:Agent>
            <dc:title>Gas Can by gsantner, remixed by Jan Helebrant</dc:title>
          </cc:Agent>
        </dc:contributor>
        <dc:subject>
          <rdf:Bag>
            <rdf:li>remix+299594</rdf:li>
            <rdf:li>remix+303945</rdf:li>
            <rdf:li>can</rdf:li>
            <rdf:li>fossil fuel</rdf:li>
            <rdf:li>fuel</rdf:li>
            <rdf:li>gas</rdf:li>
            <rdf:li>gas can</rdf:li>
            <rdf:li>gasoline</rdf:li>
            <rdf:li>go juice</rdf:li>
            <rdf:li>jerry-can</rdf:li>
            <rdf:li>lineart</rdf:li>
            <rdf:li>petrol</rdf:li>
            <rdf:li></rdf:li>
          </rdf:Bag>
        </dc:subject>
        <dc:description>A typical tin canister used for gasoline / petrol. Remixed version after cleanup, with some changes.</dc:description>
        <dc:creator>
          <cc:Agent>
            <dc:title>Jan Helebrant</dc:title>
          </cc:Agent>
        </dc:creator>
      </cc:Work>
    </rdf:RDF>
  </metadata>
  <defs
     id="defs54" />
  <sodipodi:namedview
     pagecolor="#ffffff"
     bordercolor="#666666"
     borderopacity="1"
     objecttolerance="10"
     gridtolerance="10"
     guidetolerance="10"
     inkscape:pageopacity="0"
     inkscape:pageshadow="2"
     inkscape:window-width="1920"
     inkscape:window-height="1140"
     id="namedview52"
     showgrid="false"
     inkscape:zoom="0.69300988"
     inkscape:cx="351.62924"
     inkscape:cy="304.74857"
     inkscape:window-x="0"
     inkscape:window-y="0"
     inkscape:window-maximized="1"
     inkscape:current-layer="g1092"
     fit-margin-top="20"
     fit-margin-left="20"
     fit-margin-bottom="20"
     fit-margin-right="20" />
  <g
     id="g1092"
     transform="translate(11.335834,-7.619487)">
    <g
       id="g1136">
      <path
         style="fill:#9f0000;stroke:#000000;stroke-width:3;stroke-miterlimit:4;stroke-dasharray:none;stroke-opacity:1"
         d="M 354.95957,33.168818 13.105192,66.389527 12.997302,581.91052 c 19.87161,38.8736 43.44657,69.53408 81.3692,91.79437 56.745848,5.38008 109.717658,-21.35437 165.475118,-26.36785 61.81115,-12.29776 123.62611,-24.5803 185.34834,-37.31862 16.12849,-53.06974 2.12403,-108.77696 6.51665,-163.01739 -0.43296,-120.61953 -0.86593,-241.23905 -1.29889,-361.858579 z"
         id="path866"
         inkscape:connector-curvature="0"
         sodipodi:nodetypes="ccccccccc" />
      <path
         d="m 92.000652,157.50044 v 502.931 c 0,11.83 51.016998,-0.78 56.629998,-1.703 l 164.733,-27.163 112.963,-18.627 c 25.477,-4.2 21.223,-29.957 21.223,-49.551 V 85.177437 c -65.392,6.112999 -130.602,14.639999 -195.845,22.150003 -42.444,4.887 -84.889,9.772 -127.333,14.658 l -29.959998,3.45 c -5.98,0.685 -2.41,26.201 -2.41,32.065 z"
         id="path4"
         inkscape:connector-curvature="0"
         style="fill:#e52929;stroke:#000000;stroke-width:3;stroke-miterlimit:4;stroke-dasharray:none;stroke-opacity:1" />
      <path
         d="m 98.239942,124.20283 c -26.98826,-9.83695 -52.29975,-29.58812 -77.178,-44.656002 l -3.153,-2.427 -1.7,-3.159 3.883,-1.695001 3.397,-0.486 h 3.884 l 4.613,-0.246 323.189268,-33.790159 88.0455,48.155259 z"
         id="path6"
         inkscape:connector-curvature="0"
         style="fill:#b3b3b3;fill-opacity:1;stroke:#000000;stroke-width:2.18620777;stroke-linejoin:round"
         sodipodi:nodetypes="ccccccccccc" />
      <path
         style="color:#000000;font-style:normal;font-variant:normal;font-weight:normal;font-stretch:normal;font-size:medium;line-height:normal;font-family:sans-serif;font-variant-ligatures:normal;font-variant-position:normal;font-variant-caps:normal;font-variant-numeric:normal;font-variant-alternates:normal;font-feature-settings:normal;text-indent:0;text-align:start;text-decoration:none;text-decoration-line:none;text-decoration-style:solid;text-decoration-color:#000000;letter-spacing:normal;word-spacing:normal;text-transform:none;writing-mode:lr-tb;direction:ltr;text-orientation:mixed;dominant-baseline:auto;baseline-shift:baseline;text-anchor:start;white-space:normal;shape-padding:0;clip-rule:nonzero;display:inline;overflow:visible;visibility:visible;opacity:1;isolation:auto;mix-blend-mode:normal;color-interpolation:sRGB;color-interpolation-filters:linearRGB;solid-color:#000000;solid-opacity:1;vector-effect:none;fill:#666666;fill-opacity:1;fill-rule:nonzero;stroke:#000000;stroke-width:2;stroke-linecap:round;stroke-linejoin:round;stroke-miterlimit:4;stroke-dasharray:none;stroke-dashoffset:0;stroke-opacity:1;color-rendering:auto;image-rendering:auto;shape-rendering:auto;text-rendering:auto;enable-background:accumulate"
         d="m 15.833984,67.433594 a 6.4725472,6.4725472 0 0 0 -3.982422,11.3125 l 14.578126,13.269531 a 6.4725472,6.4725472 0 0 0 0.716796,0.564453 l 52.15625,35.482422 a 6.4725472,6.4725472 0 0 0 1.859375,0.87109 c 5.342255,1.52818 12.241506,1.86971 21.492191,1.83594 9.25068,-0.0338 20.63603,-0.60184 33.73242,-1.57422 26.19277,-1.94475 59.2072,-5.52046 94.91797,-9.81445 71.42153,-8.58798 153.61691,-20.04991 212.67773,-27.054688 a 6.4725472,6.4725472 0 1 0 -1.52344,-12.853516 c -59.3055,7.033799 -141.46657,18.491136 -212.70117,27.056644 -35.61729,4.28275 -68.50616,7.84044 -94.33008,9.75781 -12.91196,0.95868 -24.06347,1.50514 -32.82031,1.53711 -8.270812,0.0302 -14.325615,-0.55282 -17.150389,-1.23047 L 34.804688,82.136719 20.566406,69.175781 a 6.4725472,6.4725472 0 0 0 -4.732422,-1.742187 z"
         id="path46"
         inkscape:connector-curvature="0" />
      <g
         id="g1004"
         transform="translate(889.86653,98.967978)"
         style="fill:#cccccc">
        <path
           style="fill:#cccccc;stroke:#a60053;stroke-width:2.18620777;stroke-linejoin:round"
           inkscape:connector-curvature="0"
           id="path8"
           d="m -712.28082,9.5879916 h -5.093" />
        <path
           style="fill:#cccccc;stroke:#000000;stroke-width:2.18620777;stroke-linejoin:round"
           inkscape:connector-curvature="0"
           id="path10"
           d="m -798.91982,-27.302008 h 6.549 l 2.188,-27.667 11.164,-4.129 52.175,34.709 6.796,17.2279996 V 13.224992 l 41.99,-4.6080004 V -12.500008 l -6.557,-16.258 -68.192,-40.533 -33.74,1.456 -10.431,6.556 z" />
        <path
           style="fill:#cccccc;stroke:#000000;stroke-width:2.18620777;stroke-linejoin:round"
           inkscape:connector-curvature="0"
           id="path12"
           d="m -760.33582,-46.963008 -17.959,-12.135 -11.65,4.13 -1.941,27.666 29.123,-2.912 z" />
      </g>
      <g
         transform="matrix(0.5847299,-0.08148064,0,0.58976044,107.48826,252.27028)"
         id="g832">
        <path
           inkscape:connector-curvature="0"
           d="M 25.301165,289.67172 289.32987,553.70044 553.40261,289.6277 C 465.35022,201.6757 377.47182,113.54942 289.3739,25.643024 Z"
           style="fill:#ffffff;stroke:none"
           id="path815" />
        <path
           inkscape:connector-curvature="0"
           d="m 361.90625,151.71875 c -21.97671,41.97446 4.80086,65.66838 -24.71875,127.5 -15.66202,-12.51358 -6.58224,-59.27877 -37.6875,-60.0625 4.78696,14.36089 1.20407,19.93912 0.40625,25.125 -3.09414,20.11189 -10.27447,38.08529 3.6875,64.8125 -21.44769,-10.42044 -21.80367,-29.54028 -39.9375,-41.53125 3.59022,20.3446 -5.05551,61.59867 19.03125,101.125 -21.4634,-2.11113 -28.5816,-10.36205 -51.8125,-32.625 24.24474,125.59567 42.28191,129.12387 131.1875,136.25 -6.69856,-0.78528 -51.49428,-7.93919 -67.71875,-59.5625 -0.92088,-12.78254 -1.42642,11.23343 41.65625,12.03125 -27.27922,-43.20279 -19.84756,-35.02469 -16.65625,-60.15625 11.29265,17.19944 1.3994,18.70351 33.3125,31.46875 -10.11823,-32.14696 15.61604,-54.14369 10.03125,-90.84375 7.05157,16.11791 32.13424,13.57949 30.9375,90.96875 20.76835,-23.17028 23.2459,-7.1331 33.21875,-33.0625 0.57762,14.43551 6.91343,32.40954 -21.3125,62 7.18045,1.99457 19.20322,3.53915 38.75,-9.625 -19.03226,21.56989 -1.83119,22.07856 -49.96875,57.375 60.63489,0.79782 100.45931,-37.37162 99.03125,-121.25 -1.59565,7.18045 -3.38283,21.5182 -36.09375,25.90625 20.48991,-20.36032 31.16796,-60.8975 14.8125,-94.40625 -5.75854,5.35573 -14.70866,30.25705 -36.25,37.4375 10.92635,-17.92607 8.46875,-41.125 8.46875,-41.125 0,0 2.78752,-31.33249 -15.71875,-55.53125 -5.18588,37.8968 -4.75267,56.9538 -28.6875,62.9375 3.8518,-22.36642 4.56116,-32.78203 -7.40625,-58.3125 -12.49935,-26.66526 -26.97228,-52.90893 -30.5625,-76.84375 z m -100.125,342.25 v 10.96875 11 H 368.5 475.21875 l -0.0312,-10.96875 -0.0312,-10.9375 L 368.5,494 Z"
           transform="scale(0.8)"
           style="fill:#000000;stroke:none"
           id="path819" />
      </g>
      <g
         id="g1066"
         style="fill:#cccccc;fill-opacity:1"
         transform="translate(906.19199,101.00866)">
        <ellipse
           style="opacity:1;fill:#cccccc;fill-opacity:1;stroke:#000000;stroke-width:3.06047916;stroke-linecap:round;stroke-linejoin:round;stroke-miterlimit:4;stroke-dasharray:none;stroke-opacity:1"
           id="ellipse1051"
           cx="-576.65118"
           cy="-33.549316"
           rx="51.736698"
           ry="13.678079" />
        <path
           sodipodi:nodetypes="sssssssss"
           inkscape:connector-curvature="0"
           id="rect1057"
           d="m -578.47602,-68.459273 h 4.37108 c 25.87652,0 46.70851,5.74577 46.70851,12.8829 v 15.28991 c 0,7.137132 -20.83199,12.882909 -46.70851,12.882909 h -4.37108 c -25.87651,0 -46.70851,-5.745777 -46.70851,-12.882909 v -15.28991 c 0,-7.13713 20.832,-12.8829 46.70851,-12.8829 z"
           style="opacity:1;fill:#cccccc;fill-opacity:1;stroke:#000000;stroke-width:2.97383308;stroke-linecap:round;stroke-linejoin:round;stroke-miterlimit:4;stroke-dasharray:none;stroke-opacity:1" />
        <ellipse
           style="opacity:1;fill:#cccccc;fill-opacity:1;stroke:#000000;stroke-width:2.97952557;stroke-linecap:round;stroke-linejoin:round;stroke-miterlimit:4;stroke-dasharray:none;stroke-opacity:1"
           id="ellipse1060"
           cx="-576.29053"
           cy="-49.098618"
           rx="48.891212"
           ry="13.718555" />
        <ellipse
           ry="13.718555"
           rx="48.891212"
           cy="-58.180855"
           cx="-576.29053"
           id="ellipse1055"
           style="opacity:1;fill:#cccccc;fill-opacity:1;stroke:#000000;stroke-width:2.97952557;stroke-linecap:round;stroke-linejoin:round;stroke-miterlimit:4;stroke-dasharray:none;stroke-opacity:1" />
      </g>
      <g
         id="text1072"
         style="font-style:normal;font-weight:normal;font-size:88.70946503px;line-height:1.25;font-family:sans-serif;letter-spacing:0px;word-spacing:0px;fill:#000000;fill-opacity:1;stroke:none;stroke-width:2.21773672;stroke-opacity:1"
         transform="matrix(0.99999999,-0.14068592,-0.17371819,1.0244397,0,0)"
         aria-label="Gasoline">
        <path
           id="path1094"
           style="font-style:normal;font-variant:normal;font-weight:bold;font-stretch:normal;font-size:88.70946503px;font-family:'Adelon Pro';-inkscape-font-specification:'Adelon Pro, Bold';font-variant-ligatures:normal;font-variant-caps:normal;font-variant-numeric:normal;font-feature-settings:normal;text-align:start;writing-mode:lr-tb;text-anchor:start;fill:#ffffff;fill-opacity:1;stroke:none;stroke-width:2.21773672;stroke-opacity:1"
           d="m 201.73669,195.49372 c -4.87902,-1.68548 -11.62094,-2.66128 -18.36285,-2.66128 -19.95963,0 -33.35476,12.41933 -33.35476,31.04831 0,18.62899 13.39513,30.95961 33.62088,30.95961 7.80644,0 15.879,-1.41935 22.97576,-3.99193 -1.06452,-2.30645 -1.50807,-4.87902 -1.50807,-9.4032 v -8.87095 c 0,-5.6774 0.35484,-7.45159 2.04032,-10.46772 h -18.18544 c 1.68548,3.01613 2.04032,4.70161 2.04032,10.46772 v 12.1532 c -0.35484,0 -0.79839,0.0887 -0.79839,0.0887 -2.74999,0.44354 -2.74999,0.44354 -4.25805,0.44354 -12.68545,0 -21.11285,-9.04836 -21.11285,-22.5322 0,-12.33062 7.62901,-20.75801 18.8064,-20.75801 6.74192,0 11.62094,2.12902 18.45157,8.07256 z"
           inkscape:connector-curvature="0" />
        <path
           id="path1096"
           style="font-style:normal;font-variant:normal;font-weight:bold;font-stretch:normal;font-size:88.70946503px;font-family:'Adelon Pro';-inkscape-font-specification:'Adelon Pro, Bold';font-variant-ligatures:normal;font-variant-caps:normal;font-variant-numeric:normal;font-feature-settings:normal;text-align:start;writing-mode:lr-tb;text-anchor:start;fill:#ffffff;fill-opacity:1;stroke:none;stroke-width:2.21773672;stroke-opacity:1"
           d="m 235.9439,253.42101 h 14.72577 c -1.68548,-3.10484 -2.04032,-4.79032 -2.04032,-10.46772 v -17.20964 c 0,-6.83063 -0.44355,-8.51611 -3.01612,-10.99997 -2.66129,-2.66129 -7.18547,-3.90322 -14.28223,-3.90322 -4.34676,0 -8.69352,0.44355 -12.68545,1.33064 l -2.92741,11.08869 c 6.12095,-3.01612 10.73384,-4.52419 14.1048,-4.52419 2.48387,0 4.34677,0.79839 5.23386,2.12903 0.70968,1.06452 0.8871,2.04032 0.8871,5.49999 l -10.46772,3.81451 c -4.79031,1.68548 -7.36289,3.19354 -9.13708,5.23385 -1.68548,1.95161 -2.74999,4.87902 -2.74999,7.62902 0,7.00805 5.14515,11.53223 13.129,11.53223 2.48387,0 3.81451,-0.26613 6.38708,-1.33064 l 2.83871,-2.57258 z m 0,-19.07254 v 9.58062 c -1.59678,1.33064 -2.75,1.77419 -4.52419,1.77419 -3.54838,0 -5.76611,-2.21773 -5.76611,-5.76611 0,-2.39516 0.70967,-3.90322 2.74999,-5.5887 z"
           inkscape:connector-curvature="0" />
        <path
           id="path1098"
           style="font-style:normal;font-variant:normal;font-weight:bold;font-stretch:normal;font-size:88.70946503px;font-family:'Adelon Pro';-inkscape-font-specification:'Adelon Pro, Bold';font-variant-ligatures:normal;font-variant-caps:normal;font-variant-numeric:normal;font-feature-settings:normal;text-align:start;writing-mode:lr-tb;text-anchor:start;fill:#ffffff;fill-opacity:1;stroke:none;stroke-width:2.21773672;stroke-opacity:1"
           d="m 285.64615,212.52594 c -3.37096,-1.15322 -6.91934,-1.68548 -10.91127,-1.68548 -9.75804,0 -16.8548,5.85483 -16.8548,13.83868 0,6.29837 3.45967,10.02417 13.66126,14.28222 3.01612,1.33064 4.16935,2.39516 4.16935,3.99193 0,2.39515 -1.8629,3.90321 -4.6129,3.90321 -3.28225,0 -7.36288,-1.86289 -13.30642,-6.12095 l -0.26612,11.35481 c 3.90321,1.59677 8.69352,2.48387 12.95158,2.48387 10.37901,0 17.56447,-5.85483 17.56447,-14.37094 0,-5.94353 -2.92741,-9.22578 -11.53223,-12.77416 -4.61289,-1.8629 -6.29837,-3.37096 -6.29837,-5.41128 0,-2.04031 1.68548,-3.45966 4.08064,-3.45966 3.10483,0 6.20966,1.41935 11.35481,5.14514 z"
           inkscape:connector-curvature="0" />
        <path
           id="path1100"
           style="font-style:normal;font-variant:normal;font-weight:bold;font-stretch:normal;font-size:88.70946503px;font-family:'Adelon Pro';-inkscape-font-specification:'Adelon Pro, Bold';font-variant-ligatures:normal;font-variant-caps:normal;font-variant-numeric:normal;font-feature-settings:normal;text-align:start;writing-mode:lr-tb;text-anchor:start;fill:#ffffff;fill-opacity:1;stroke:none;stroke-width:2.21773672;stroke-opacity:1"
           d="m 316.43803,210.84046 c -6.20966,0 -12.41932,2.39516 -16.76609,6.5645 -3.99192,3.81451 -6.12095,9.40321 -6.12095,15.79029 0,12.77416 8.24998,21.37898 20.49188,21.37898 13.21771,0 22.70963,-9.13708 22.70963,-21.91124 0,-13.21771 -7.98385,-21.82253 -20.31447,-21.82253 z m -2.8387,8.24998 c 2.74999,0 4.96773,1.41935 6.5645,4.34677 2.12902,3.72579 3.54838,9.31449 3.54838,13.74996 0,5.67741 -2.57258,9.13708 -6.83063,9.13708 -2.92741,0 -5.23386,-1.59677 -7.00805,-4.87902 -2.12903,-3.81451 -3.28225,-8.4274 -3.28225,-13.04029 0,-5.67741 2.74999,-9.3145 7.00805,-9.3145 z"
           inkscape:connector-curvature="0" />
        <path
           id="path1102"
           style="font-style:normal;font-variant:normal;font-weight:bold;font-stretch:normal;font-size:88.70946503px;font-family:'Adelon Pro';-inkscape-font-specification:'Adelon Pro, Bold';font-variant-ligatures:normal;font-variant-caps:normal;font-variant-numeric:normal;font-feature-settings:normal;text-align:start;writing-mode:lr-tb;text-anchor:start;fill:#ffffff;fill-opacity:1;stroke:none;stroke-width:2.21773672;stroke-opacity:1"
           d="m 359.4552,253.42101 c -1.68548,-3.01613 -2.04032,-4.79032 -2.04032,-10.46772 v -39.83055 c 0,-5.41128 0.35484,-7.71772 1.68548,-12.1532 l -16.41125,4.79031 c 1.77419,2.92742 2.04032,4.16935 2.04032,8.78224 v 38.4112 c 0,5.6774 -0.35484,7.36288 -2.04032,10.46772 z"
           inkscape:connector-curvature="0" />
        <path
           id="path1104"
           style="font-style:normal;font-variant:normal;font-weight:bold;font-stretch:normal;font-size:88.70946503px;font-family:'Adelon Pro';-inkscape-font-specification:'Adelon Pro, Bold';font-variant-ligatures:normal;font-variant-caps:normal;font-variant-numeric:normal;font-feature-settings:normal;text-align:start;writing-mode:lr-tb;text-anchor:start;fill:#ffffff;fill-opacity:1;stroke:none;stroke-width:2.21773672;stroke-opacity:1"
           d="m 383.36517,253.42101 c -1.68548,-3.01613 -2.04032,-4.79032 -2.04032,-10.46772 V 222.4614 c 0,-5.6774 0.35484,-7.45159 2.04032,-10.46771 h -16.76609 c 1.68548,3.10483 2.04032,4.79031 2.04032,10.46771 v 20.49189 c 0,5.6774 -0.35484,7.36288 -2.04032,10.46772 z m -8.4274,-58.54825 c -4.43547,0 -8.16127,3.28225 -8.16127,7.27417 0,3.99193 3.7258,7.27418 8.16127,7.27418 4.52419,0 8.24998,-3.28225 8.24998,-7.18547 0,-4.08063 -3.63708,-7.36288 -8.24998,-7.36288 z"
           inkscape:connector-curvature="0" />
        <path
           id="path1106"
           style="font-style:normal;font-variant:normal;font-weight:bold;font-stretch:normal;font-size:88.70946503px;font-family:'Adelon Pro';-inkscape-font-specification:'Adelon Pro, Bold';font-variant-ligatures:normal;font-variant-caps:normal;font-variant-numeric:normal;font-feature-settings:normal;text-align:start;writing-mode:lr-tb;text-anchor:start;fill:#ffffff;fill-opacity:1;stroke:none;stroke-width:2.21773672;stroke-opacity:1"
           d="m 405.23483,211.99369 h -14.72577 c 1.68548,3.10483 2.04031,4.79031 2.04031,10.46771 v 20.49189 c 0,5.6774 -0.35483,7.36288 -2.04031,10.46772 h 16.76609 c -1.68548,-3.01613 -2.04032,-4.79032 -2.04032,-10.46772 v -20.84673 c 2.12903,-1.41935 3.54838,-1.9516 5.14515,-1.9516 3.19354,0 4.61289,1.77419 4.61289,5.76611 v 17.03222 c 0,5.76611 -0.35484,7.45159 -2.04032,10.46772 h 16.76609 c -1.68548,-3.01613 -2.04032,-4.79032 -2.04032,-10.46772 v -17.91931 c 0,-5.67741 -0.79838,-8.4274 -3.01612,-10.73385 -2.21774,-2.21774 -5.67741,-3.45967 -9.66933,-3.45967 -2.66128,0 -4.08064,0.35484 -6.47579,1.68548 l -3.28225,3.45967 z"
           inkscape:connector-curvature="0" />
        <path
           id="path1108"
           style="font-style:normal;font-variant:normal;font-weight:bold;font-stretch:normal;font-size:88.70946503px;font-family:'Adelon Pro';-inkscape-font-specification:'Adelon Pro, Bold';font-variant-ligatures:normal;font-variant-caps:normal;font-variant-numeric:normal;font-feature-settings:normal;text-align:start;writing-mode:lr-tb;text-anchor:start;fill:#ffffff;fill-opacity:1;stroke:none;stroke-width:2.21773672;stroke-opacity:1"
           d="m 474.30623,235.23556 0.0887,-4.43547 c 0,-13.129 -5.94353,-19.95963 -17.38705,-19.95963 -12.68546,0 -21.5564,9.40321 -21.5564,22.97575 0,5.67741 1.68548,10.82256 4.87902,14.45965 3.63708,4.25805 8.78223,6.29837 16.14512,6.29837 5.76611,0 9.66933,-0.79839 13.83868,-2.92741 l 3.72579,-10.2903 c -5.85482,2.8387 -9.75804,3.90321 -13.83867,3.90321 -6.47579,0 -10.11288,-3.28225 -11.26611,-10.02417 z m -25.45962,-8.78223 c 0.62097,-5.05644 3.01613,-7.80644 6.65321,-7.80644 3.81451,0 6.12096,2.92742 6.12096,7.80644 z"
           inkscape:connector-curvature="0" />
      </g>
    </g>
  </g>
</svg>
