<?xml version="1.0" standalone="no"?>
<!DOCTYPE svg PUBLIC "-//W3C//DTD SVG 20010904//EN"
 "http://www.w3.org/TR/2001/REC-SVG-20010904/DTD/svg10.dtd">
<svg version="1.0" xmlns="http://www.w3.org/2000/svg"
 width="242.000000pt" height="242.000000pt" viewBox="0 0 242.000000 242.000000"
 preserveAspectRatio="xMidYMid meet">

<g transform="translate(0.000000,242.000000) scale(0.100000,-0.100000)"
fill="#000000" stroke="none">
<path d="M1128 1880 c-211 -38 -402 -179 -490 -360 -18 -38 -36 -70 -39 -70
-4 0 -12 14 -19 30 -7 17 -15 30 -17 30 -11 0 -83 -44 -83 -51 0 -6 114 -196
124 -206 4 -4 185 100 214 123 5 3 -47 84 -53 84 -3 0 -17 -7 -30 -16 -32 -21
-31 -10 4 51 102 177 289 285 494 285 51 0 117 -7 147 -15 205 -54 372 -230
414 -435 l13 -64 44 3 c24 1 47 6 50 9 12 13 -22 146 -55 217 -108 232 -326
378 -580 390 -50 2 -112 0 -138 -5z"/>
<path d="M1830 1168 c-19 -12 -65 -42 -103 -65 l-67 -43 22 -40 c26 -45 29
-46 63 -24 36 24 31 6 -23 -77 -60 -91 -134 -158 -227 -203 -90 -44 -160 -60
-260 -59 -190 1 -369 100 -476 265 -35 55 -64 132 -84 221 -5 27 -8 28 -53 25
l-47 -3 3 -40 c5 -60 46 -174 88 -246 121 -209 380 -344 622 -325 95 7 209 42
292 89 86 48 209 178 257 271 36 70 42 77 51 60 28 -48 28 -48 68 -24 22 13
41 25 43 26 4 4 -122 214 -129 214 -3 0 -21 -10 -40 -22z"/>
</g>
</svg>
