<svg version="1.1" id="Layer_1" xmlns="http://www.w3.org/2000/svg" xmlns:xlink="http://www.w3.org/1999/xlink" x="0px" y="0px"
	 width="100%" viewBox="0 0 242 242" enable-background="new 0 0 242 242" xml:space="preserve">
<path fill="#FEFEFE" opacity="1.000000" stroke="none" 
	d="
M243.000000,85.000000 
	C243.000000,138.000000 243.000000,190.500000 243.000000,243.000000 
	C162.333328,243.000000 81.666664,243.000000 1.000000,243.000000 
	C1.000000,162.333328 1.000000,81.666664 1.000000,1.000000 
	C81.666664,1.000000 162.333328,1.000000 243.000000,1.000000 
	C243.000000,28.833334 243.000000,56.666668 243.000000,85.000000 
M72.815567,98.843117 
	C72.674797,98.731300 72.534035,98.619484 72.708313,97.877876 
	C83.336044,75.279900 105.442307,62.736183 130.768295,64.932999 
	C156.442795,67.160042 173.462082,84.232368 182.013565,116.607803 
	C185.132156,116.300995 188.302612,115.989082 191.466263,115.677841 
	C188.356277,84.644882 165.591843,60.128128 136.053436,55.100716 
	C108.290474,50.375484 75.717674,63.260845 61.216324,98.168541 
	C59.713593,95.901726 58.323582,93.804939 56.932064,91.705887 
	C53.850563,93.645622 51.253494,95.280426 48.538479,96.989471 
	C53.095894,104.443565 57.304573,111.327278 61.629768,118.401558 
	C68.981934,113.896187 75.988419,109.602638 83.089142,105.251350 
	C81.180595,102.184822 79.535378,99.541397 77.889114,96.896286 
	C76.138565,97.762360 74.674019,98.486931 72.815567,98.843117 
M185.500000,7.001143 
	C177.338226,7.001143 169.176453,7.001143 161.014679,7.001143 
	C152.894852,7.001143 144.775040,7.001143 136.655212,7.001143 
	C162.736237,10.887519 185.209320,21.891256 203.677032,40.356628 
	C222.157425,58.834682 233.122345,81.373260 236.703888,107.366463 
	C236.703888,73.978630 236.703888,40.590809 236.703888,7.001143 
	C219.773132,7.001143 203.136566,7.001143 185.500000,7.001143 
M43.032646,206.553406 
	C23.397329,187.183685 11.056338,164.086472 7.264871,136.608475 
	C7.264871,169.983627 7.264871,203.358795 7.264871,236.752289 
	C40.832191,236.752289 74.135178,236.752289 107.438171,236.752289 
	C93.912674,234.866135 80.920578,231.146530 69.140129,224.402771 
	C60.223091,219.298172 52.060436,212.875763 43.032646,206.553406 
M143.622498,236.998871 
	C174.695847,236.998871 205.769196,236.998871 236.998886,236.998871 
	C236.998886,219.721832 236.998886,203.077438 236.998886,186.433029 
	C236.998886,169.859451 236.998886,153.285858 236.998886,136.486053 
	C225.990997,192.827744 192.765823,226.160217 136.354187,236.998871 
	C138.697388,236.998871 140.681549,236.998871 143.622498,236.998871 
M8.033105,101.800804 
	C11.363124,91.778358 13.779326,81.331085 18.202465,71.816826 
	C29.391893,47.748138 47.411060,29.969601 71.297592,18.318665 
	C82.758659,12.728398 94.828476,8.961299 107.532768,7.216573 
	C74.143097,7.216573 40.753433,7.216573 7.232308,7.216573 
	C7.232308,40.776939 7.232308,74.121513 7.232308,107.466087 
	C7.488684,107.468857 7.745060,107.471626 8.001436,107.474388 
	C8.001436,105.874359 8.001436,104.274323 8.033105,101.800804 
M179.622833,160.096375 
	C182.676025,154.853912 185.729218,149.611450 188.860992,144.234024 
	C190.104492,146.103989 191.443909,148.118179 192.945969,150.376953 
	C195.904465,148.477432 198.602448,146.745163 201.329025,144.994553 
	C196.711304,137.613861 192.422745,130.759262 188.021149,123.723991 
	C180.692795,128.321014 173.721207,132.694244 166.698517,137.099518 
	C168.628082,140.129593 170.289703,142.738922 172.005707,145.433640 
	C173.927490,144.379608 175.437424,143.551468 177.306885,142.526138 
	C171.261566,162.096558 148.152130,177.591278 125.342094,177.585663 
	C113.024933,177.582642 101.718208,174.004669 91.723503,166.723709 
	C77.810654,156.588470 70.264107,142.641266 68.011963,125.547112 
	C64.507202,125.866188 61.420605,126.147186 58.345150,126.427177 
	C60.251461,153.195374 79.489365,176.965988 105.340508,184.885162 
	C132.696121,193.265198 160.822586,184.031952 179.622833,160.096375 
z"/>
<path fill="#000000" opacity="1.000000" stroke="none" 
	d="
M186.000000,7.001143 
	C203.136566,7.001143 219.773132,7.001143 236.703888,7.001143 
	C236.703888,40.590809 236.703888,73.978630 236.703888,107.366463 
	C233.122345,81.373260 222.157425,58.834682 203.677032,40.356628 
	C185.209320,21.891256 162.736237,10.887519 136.655212,7.001143 
	C144.775040,7.001143 152.894852,7.001143 161.014679,7.001143 
	C169.176453,7.001143 177.338226,7.001143 186.000000,7.001143 
z"/>
<path fill="#000000" opacity="1.000000" stroke="none" 
	d="
M43.297356,206.796600 
	C52.060436,212.875763 60.223091,219.298172 69.140129,224.402771 
	C80.920578,231.146530 93.912674,234.866135 107.438171,236.752289 
	C74.135178,236.752289 40.832191,236.752289 7.264871,236.752289 
	C7.264871,203.358795 7.264871,169.983627 7.264871,136.608475 
	C11.056338,164.086472 23.397329,187.183685 43.297356,206.796600 
z"/>
<path fill="#000000" opacity="1.000000" stroke="none" 
	d="
M143.144104,236.998871 
	C140.681549,236.998871 138.697388,236.998871 136.354187,236.998871 
	C192.765823,226.160217 225.990997,192.827744 236.998886,136.486053 
	C236.998886,153.285858 236.998886,169.859451 236.998886,186.433029 
	C236.998886,203.077438 236.998886,219.721832 236.998886,236.998871 
	C205.769196,236.998871 174.695847,236.998871 143.144104,236.998871 
z"/>
<path fill="#000000" opacity="1.000000" stroke="none" 
	d="
M8.017271,102.237549 
	C8.001436,104.274323 8.001436,105.874359 8.001436,107.474388 
	C7.745060,107.471626 7.488684,107.468857 7.232308,107.466087 
	C7.232308,74.121513 7.232308,40.776939 7.232308,7.216573 
	C40.753433,7.216573 74.143097,7.216573 107.532768,7.216573 
	C94.828476,8.961299 82.758659,12.728398 71.297592,18.318665 
	C47.411060,29.969601 29.391893,47.748138 18.202465,71.816826 
	C13.779326,81.331085 11.363124,91.778358 8.017271,102.237549 
z"/>
<path fill="#070707" opacity="1.000000" stroke="none" 
	d="
M73.209465,99.211494 
	C74.674019,98.486931 76.138565,97.762360 77.889114,96.896286 
	C79.535378,99.541397 81.180595,102.184822 83.089142,105.251350 
	C75.988419,109.602638 68.981934,113.896187 61.629768,118.401558 
	C57.304573,111.327278 53.095894,104.443565 48.538479,96.989471 
	C51.253494,95.280426 53.850563,93.645622 56.932064,91.705887 
	C58.323582,93.804939 59.713593,95.901726 61.216324,98.168541 
	C75.717674,63.260845 108.290474,50.375484 136.053436,55.100716 
	C165.591843,60.128128 188.356277,84.644882 191.466263,115.677841 
	C188.302612,115.989082 185.132156,116.300995 182.013565,116.607803 
	C173.462082,84.232368 156.442795,67.160042 130.768295,64.932999 
	C105.442307,62.736183 83.336044,75.279900 72.378143,98.436562 
	C72.107300,99.268730 72.166626,99.542221 72.225952,99.815704 
	C72.553787,99.614296 72.881622,99.412895 73.209465,99.211494 
z"/>
<path fill="#060606" opacity="1.000000" stroke="none" 
	d="
M179.393173,160.373596 
	C160.822586,184.031952 132.696121,193.265198 105.340508,184.885162 
	C79.489365,176.965988 60.251461,153.195374 58.345150,126.427177 
	C61.420605,126.147186 64.507202,125.866188 68.011963,125.547112 
	C70.264107,142.641266 77.810654,156.588470 91.723503,166.723709 
	C101.718208,174.004669 113.024933,177.582642 125.342094,177.585663 
	C148.152130,177.591278 171.261566,162.096558 177.306885,142.526138 
	C175.437424,143.551468 173.927490,144.379608 172.005707,145.433640 
	C170.289703,142.738922 168.628082,140.129593 166.698517,137.099518 
	C173.721207,132.694244 180.692795,128.321014 188.021149,123.723991 
	C192.422745,130.759262 196.711304,137.613861 201.329025,144.994553 
	C198.602448,146.745163 195.904465,148.477432 192.945969,150.376953 
	C191.443909,148.118179 190.104492,146.103989 188.860992,144.234024 
	C185.729218,149.611450 182.676025,154.853912 179.393173,160.373596 
z"/>
<path fill="#FEFEFE" opacity="1.000000" stroke="none" 
	d="
M73.012512,99.027298 
	C72.881622,99.412895 72.553787,99.614296 72.225952,99.815704 
	C72.166626,99.542221 72.107300,99.268730 72.220627,98.751465 
	C72.534035,98.619484 72.674797,98.731300 73.012512,99.027298 
z"/>
</svg>