<?xml version="1.0" encoding="utf-8"?>
<!-- Generator: Adobe Illustrator 26.0.3, SVG Export Plug-In . SVG Version: 6.00 Build 0)  -->
<svg version="1.1" xmlns="http://www.w3.org/2000/svg" xmlns:xlink="http://www.w3.org/1999/xlink" x="0px" y="0px"
	 viewBox="0 0 55 55" style="enable-background:new 0 0 55 55;" xml:space="preserve">
<style type="text/css">
	.st0{clip-path:url(#SVGID_00000122683230206022576380000006448694534571319197_);fill:#FFFFFF;}
	.st1{clip-path:url(#SVGID_00000122683230206022576380000006448694534571319197_);fill:#1D1D1B;}
</style>
<g id="Ebene_1">
	<g>
		<defs>
			<rect id="SVGID_1_" width="55" height="55"/>
		</defs>
		<clipPath id="SVGID_00000120533073666725850990000013614588617040380041_">
			<use xlink:href="#SVGID_1_"  style="overflow:visible;"/>
		</clipPath>
		<path style="clip-path:url(#SVGID_00000120533073666725850990000013614588617040380041_);fill:#FFFFFF;" d="M27.5,55
			C42.7,55,55,42.7,55,27.5S42.7,0,27.5,0S0,12.3,0,27.5S12.3,55,27.5,55"/>
		<path style="clip-path:url(#SVGID_00000120533073666725850990000013614588617040380041_);fill:#1D1D1B;" d="M39.9,39.4
			c-1.3-2.3-4.3-3.1-6.6-1.8c-2.3,1.3-3.1,4.3-1.8,6.6c1.3,2.3,4.3,3.1,6.6,1.8S41.2,41.7,39.9,39.4"/>
		<path style="clip-path:url(#SVGID_00000120533073666725850990000013614588617040380041_);fill:#1D1D1B;" d="M23.4,10.8
			c-1.3-2.3-4.3-3.1-6.6-1.8s-3.1,4.3-1.8,6.6c1.3,2.3,4.3,3.1,6.6,1.8S24.7,13.1,23.4,10.8"/>
		<path style="clip-path:url(#SVGID_00000120533073666725850990000013614588617040380041_);fill:#1D1D1B;" d="M11,32.3
			c2.7,0,4.8-2.1,4.8-4.8s-2.1-4.8-4.8-4.8s-4.8,2.1-4.8,4.8S8.3,32.3,11,32.3"/>
		<path style="clip-path:url(#SVGID_00000120533073666725850990000013614588617040380041_);fill:#1D1D1B;" d="M44,32.3
			c2.7,0,4.8-2.1,4.8-4.8s-2.1-4.8-4.8-4.8s-4.8,2.1-4.8,4.8S41.4,32.3,44,32.3"/>
		<path style="clip-path:url(#SVGID_00000120533073666725850990000013614588617040380041_);fill:#1D1D1B;" d="M31.6,10.8
			c-1.3,2.3-0.5,5.2,1.8,6.6s5.2,0.5,6.6-1.8c1.3-2.3,0.5-5.2-1.8-6.6C35.9,7.7,32.9,8.5,31.6,10.8"/>
		<path style="clip-path:url(#SVGID_00000120533073666725850990000013614588617040380041_);fill:#1D1D1B;" d="M15.1,39.4
			c-1.3,2.3-0.5,5.2,1.8,6.6s5.2,0.5,6.6-1.8c1.3-2.3,0.5-5.2-1.8-6.6C19.3,36.3,16.4,37.1,15.1,39.4"/>
		<path style="clip-path:url(#SVGID_00000120533073666725850990000013614588617040380041_);fill:#1D1D1B;" d="M27.3,32.3
			c2.7,0,4.8-2.1,4.8-4.8s-2.1-4.8-4.8-4.8s-4.8,2.1-4.8,4.8S24.6,32.3,27.3,32.3"/>
	</g>
</g>
<g id="Ebene_2">
</g>
</svg>
